<?xml version="1.0" encoding="UTF-8"?>
<svg  version="1.1" viewBox="0 0 80 80" xmlns="http://www.w3.org/2000/svg">
    <defs>
        <clipPath id="clipPath106">
            <path d="M 0,595.28 H 841.89 V 0 H 0 Z"></path>
        </clipPath>
    </defs>
    <g transform="translate(-5.0286 -3.2035)">
        <g transform="translate(3.7795 2.2677)" fill="#40a1da">
            <path d="m36.36 75.623c-1.254-0.17905-2.3475-0.39303-2.4299-0.4755-0.29691-0.29691-0.75694-10.182-0.64531-13.867l0.1141-3.766 7.3055-0.66548c4.018-0.36601 7.3404-0.60414 7.3831-0.52917 0.04264 0.07498 0.02939 3.7479-0.02942 8.162-0.08953 6.7184-0.19009 8.0257-0.61736 8.0257-0.62241 0-0.69032 0.70098-0.06943 0.71677 0.26931 0.0069 0.20064 0.19366-0.17639 0.47987-0.33955 0.25776-0.62146 0.60989-0.62646 0.78253s-0.61264 0.5917-1.3503 0.93125c-1.4874 0.68467-4.9383 0.76442-8.8581 0.20472zm-0.71863-12.287c-0.69087-0.44648-1.1579-0.44648-0.88194 0 0.11992 0.19403 0.48647 0.35035 0.81457 0.34738 0.51409-0.0047 0.52341-0.05267 0.06737-0.34738zm-1.2827-1.136c-0.13157-0.21289-0.33566-0.16257-0.51988 0.12817-0.48216 0.76095-0.36238 1.1343 0.2112 0.65825 0.2889-0.23977 0.42781-0.59366 0.30868-0.78642zm-12.476 11.543c0-0.29104 0.15875-0.52917 0.35278-0.52917s0.35278 0.23812 0.35278 0.52917c0 0.29104-0.15875 0.52917-0.35278 0.52917s-0.35278-0.23812-0.35278-0.52917zm5.0132-0.61856c0.31307-0.22341 0.20728-0.27032-0.33939-0.1505-0.43683 0.09575-0.70527 0.03016-0.59654-0.14578 0.18907-0.30593-0.01799-0.39948-0.99047-0.44747-0.24254-0.01196-0.92731-0.37053-1.5217-0.79681-0.59441-0.42628-1.6263-1.0043-2.2931-1.2844-0.66677-0.28015-1.745-1.009-2.3961-1.6197-0.65111-0.6107-1.3064-1.1104-1.4561-1.1104-0.14975 0-0.46713-0.23479-0.70529-0.52176-0.33186-0.39986-0.59805-0.43343-1.1394-0.14371-0.50496 0.27025-0.8163 0.26813-1.0918-0.0074-0.27876-0.27876-0.17062-0.38546 0.39065-0.38546 0.85998 0 1.0538-0.62113 0.28583-0.91584-0.46578-0.17873-3.7431-4.1723-3.7431-4.5612 0-0.10143-0.55562-0.99216-1.2347-1.9794-0.6791-0.98724-1.2347-2.004-1.2347-2.2594 0-0.25541-0.19908-0.67416-0.44239-0.93055-0.73979-0.77956-2.6792-5.9295-3.4304-9.1092-0.47198-1.9978-0.69077-4.0583-0.65556-6.1736l0.052848-3.175 0.24687 3.5278c0.27421 3.9184 0.37896 4.4517 1.6502 8.4008 0.93942 2.9183 1.4621 3.5122 0.79745 0.90613-1.7278-6.7744-1.816-7.4514-1.6586-12.733 0.085085-2.8547 0.020638-5.1075-0.14319-5.0063-0.16384 0.10126-0.29789 0.8362-0.29789 1.6332s-0.11259 1.3365-0.25021 1.1989c-0.13762-0.13762-0.20602-0.8623-0.152-1.6104 0.11913-1.6499-0.38377-2.0571-1.3488-1.0921l-0.71842 0.71842v-1.7092c0-1.2556 0.18543-1.877 0.69866-2.3415 0.38426-0.34775 0.79762-1.1598 0.91858-1.8046 0.12096-0.64477 0.64-1.6504 1.1534-2.2346 2.2162-2.522 2.9313-3.6306 4.5835-7.1056 0.9719-2.0442 2.3247-4.2704 3.0452-5.0114 1.0216-1.0507 1.2435-1.1665 1.0467-0.54647l-0.24973 0.78684 1.0074-0.66004c0.55404-0.36302 1.3289-0.9633 1.722-1.3339 1.9707-1.8584 6.0583-4.619 9.1244-6.1624 1.8855-0.94908 3.3047-1.8614 3.1536-2.0273-0.15102-0.16597-0.06264-0.17921 0.19641-0.02942 0.25905 0.14978 0.97342 0.03351 1.5875-0.25839 1.0941-0.52005 2.8866-1.0425 5.7026-1.662 1.9923-0.4383 10.569-0.4115 11.731 0.03665 0.53273 0.20543 1.6762 0.45341 2.541 0.55107 0.86483 0.09765 1.8923 0.40163 2.2834 0.6755 0.39101 0.27388 0.99171 0.49795 1.3349 0.49795 1.3262 0 7.3173 3.0069 10.439 5.2394 1.5876 1.1353 4.843 4.2856 4.4285 4.2856-0.18494 0-0.96378-0.65063-1.7308-1.4458-1.7712-1.8363-4.9931-4.0097-7.8656-5.3057-3.0239-1.3643-3.1737-1.2642-0.40809 0.27277 3.9649 2.2034 8.669 5.8061 8.1971 6.2779-0.11044 0.11044 0.05043 0.20081 0.35751 0.20081 0.72979 0 2.676 2.4918 2.4798 3.175-0.10964 0.38171-0.06644 0.40865 0.15502 0.09668 0.21561-0.30373 0.81991 0.24651 2.0298 1.8482 1.67 2.2109 2.6271 2.9439 1.4015 1.0733-0.33282-0.50796-0.52749-1.0012-0.43259-1.0961 0.26941-0.26941 2.0385 2.5718 2.6101 4.192 0.28314 0.80249 0.73918 1.8015 1.0134 2.2201 0.27424 0.41855 0.82693 1.7705 1.2282 3.0044 0.40125 1.2339 0.8852 2.4815 1.0754 2.7725 0.30746 0.47037 0.38449 0.47037 0.69327 0 0.29044-0.44245 0.35511-0.41354 0.39457 0.17639 0.02596 0.38805 0.02146 0.90399-0.01005 1.1465-0.0315 0.24254 0.10226 0.44097 0.29724 0.44097 0.19497 0 0.67818 0.34743 1.0738 0.77208l0.7193 0.77208v-0.77208c-8e-6 -0.42465 0.17573-0.77208 0.39051-0.77208 0.21479 0 0.29416 0.25111 0.17639 0.55802-0.11778 0.30691-0.21413 0.70379-0.21413 0.88195 0 0.17815-0.30813 0.32392-0.68474 0.32392-0.92279 0-1.1906 0.52664-0.54175 1.0652 0.39342 0.32651 0.42997 0.55964 0.14214 0.90646-0.21312 0.2568-0.29187 0.62164-0.17498 0.81076 0.11688 0.18912 0.03997 0.45049-0.17091 0.58082-0.24609 0.15209-0.2918 0.76103-0.12763 1.7001 0.36701 2.0992 0.39502 3.7791 0.06639 3.9822-0.15615 0.09651-0.20017 0.31097-0.09781 0.47658s-0.35043 1.385-1.0062 2.7097c-1.142 2.3069-1.6153 3.6732-1.8198 5.2526-0.10923 0.84386-1.5577 4.4058-1.9924 4.8994-0.16231 0.18432-0.29268 0.50182-0.28971 0.70555 0.0035 0.24278 0.09471 0.24886 0.26458 0.01765 0.14255-0.19403 0.57668-0.5909 0.96474-0.88194 0.72669-0.54502-0.25864 0.66122-3.6778 4.5024-2.3671 2.6593-9.4742 8.7463-10.133 8.6784-0.25815-0.0266-0.3926 0.07583-0.29879 0.22762 0.1615 0.26132-0.60956 0.70269-1.2276 0.70269-0.68234 0-0.69432-1.1824-0.0168-1.6569 0.80432-0.56337 0.96852-1.241 0.23225-0.95848-0.31939 0.12256-0.55368-0.17773-0.69674-0.89302-0.15519-0.77596-0.41553-1.0777-0.92991-1.0777-0.39291 0-0.67469-0.17859-0.62618-0.39688 0.15039-0.67677-0.72461-0.73865-0.89959-0.06362-0.19229 0.74179-0.34959-1.5165-0.34266-4.9194 0.0028-1.3097-0.12626-2.3812-0.28651-2.3812-0.42 0-0.78548 2.2746-0.50664 3.1532 0.13527 0.42618 0.08921 0.70355-0.1076 0.64803-0.40171-0.11331-0.41636-0.04419-0.40924 1.9314 0.0039 1.098 0.09694 1.3577 0.34738 0.97014 0.27802-0.43021 0.34298-0.38462 0.34738 0.24376 0.0028 0.42511-0.14736 0.86734-0.33407 0.98274-0.21293 0.1316-0.19206 0.53334 0.05597 1.0777 0.31969 0.70163 0.28334 0.99179-0.18969 1.5145-0.32182 0.35562-0.58514 0.81928-0.58514 1.0304 0 0.21109-0.19844 0.46387-0.44097 0.56173-0.35278 0.14235-0.35278 0.1835 0 0.20578 0.60732 0.03836 0.55415 0.90586-0.08819 1.439-0.29104 0.24154-0.52917 0.5735-0.52917 0.73768s0.23812 0.20713 0.52917 0.09545c0.79867-0.30648 0.63448 0.14402-0.21896 0.60076-0.45606 0.24408-0.6604 0.25844-0.52341 0.03679 0.12359-0.19998 0.08429-0.45039-0.08734-0.55646-0.17163-0.10608-0.32755-1.0299-0.34648-2.0528-0.01894-1.023-0.18495-2.3362-0.36893-2.9183-0.30722-0.972-0.33698-0.90903-0.36483 0.77182-0.02656 1.6036-0.11766 1.8236-0.73588 1.777-0.38806-0.02925-0.70854-0.13843-0.71219-0.24266-0.0036-0.10423-0.31816-2.5708-0.69892-5.4812s-0.69528-5.8743-0.69893-6.5865l-0.0066-1.2948 2.3812-0.22844c4.4771-0.4295 5.1223-0.62565 5.2497-1.5959 0.06338-0.48268 0.19399-1.3142 0.29026-1.8477 0.20567-1.14 0.20573-1.14-3.3025-0.47095-2.169 0.41365-2.6927 0.41893-3.0805 0.03108-0.257-0.257-0.63258-0.52238-0.83462-0.58973-0.21222-0.07074-0.2772-0.57315-0.15388-1.1898 0.20882-1.0441 0.28847-1.0809 3.6624-1.6934 3.5673-0.64763 4.2546-0.98234 4.2546-2.072 0-0.77879 1.7431-1.8923 3.469-2.2161 1.1746-0.22036 2.3261-0.72032 3.5554-1.5437 0.399-0.26724 0.20683-0.63812-0.96634-1.865-1.5594-1.6307-1.7953-2.4114-0.94282-3.1189 0.58228-0.48325 0.71732-1.4111 0.20537-1.4111-0.17809 0-1.114 0.39688-2.0797 0.88195-0.96573 0.48506-1.9753 0.88194-2.2435 0.88194s-0.81368 0.22838-1.2122 0.5075c-1.8307 1.2823-12.463 3.7986-21.732 5.1429l-5.1894 0.75273-1.0892-1.1142c-0.85437-0.87401-1.1938-1.0274-1.5745-0.71145-0.26692 0.22152-0.41685 0.78026-0.33319 1.2416l0.15212 0.83887-2.9133-0.18031c-1.6023-0.09917-3.7314-0.4066-4.7314-0.68318-2.2913-0.63372-2.2388-0.63848-2.2388 0.20269 0 0.38805 0.15875 0.70555 0.35278 0.70555 0.73825 0 0.30077 0.59581-1.0488 1.4284-1.5919 0.98207-1.7152 1.2528-0.71505 1.5702 0.38806 0.12316 0.70556 0.362 0.70556 0.53076s0.53775 0.21956 1.195 0.1129c0.91226-0.14804 1.3684-0.0205 1.9279 0.53898l0.7329 0.7329-0.90173 1.0716c-0.49595 0.58941-1.0705 0.96732-1.2769 0.8398-0.20634-0.12752-0.27301-0.06661-0.14816 0.1354 0.12483 0.20198-0.34187 0.98057-1.0371 1.7302-0.69524 0.74963-1.6282 2.1761-2.0733 3.1699s-1.0127 1.9327-1.2614 2.0863c-0.32213 0.19908-0.38735 0.11064-0.22685-0.30762 0.1239-0.32287 0.0715-0.58704-0.11644-0.58704s-0.34171 0.13475-0.34171 0.29944-0.72644 1.0156-1.6143 1.891l-1.6143 1.5916 1.0306-0.03892c0.64482-0.02434 1.018-0.22278 0.99696-0.53012-0.05803-0.84802 0.79924-0.83135 1.6341 0.03179 0.88481 0.91474 2.4965 0.97318 2.153 0.07807-0.16042-0.41805-0.02851-0.44964 0.70818-0.16956 0.76723 0.2917 0.87185 0.25697 0.68587-0.22768-0.14639-0.3815-0.08205-0.48696 0.19327-0.31681 0.61354 0.37919 0.49929-0.10396-0.18489-0.7819-0.55949-0.55438-0.58326-0.55422-0.37259 0.0024 0.27058 0.71494-0.37901 1.0201-1.2346 0.58007-0.75644-0.38905-0.80742-1.3002-0.0882-1.5762 0.29104-0.11169 0.52917-0.36701 0.52917-0.5674 0-0.20038 0.27781-0.57726 0.61736-0.8375 0.49308-0.3779 0.52362-0.53504 0.15171-0.78052-0.35575-0.23482-0.21466-0.51855 0.5978-1.2022 0.5849-0.49216 0.97512-0.98316 0.86716-1.0911-0.10796-0.10796 0.41125-0.95905 1.1538-1.8913 0.74255-0.93227 1.3792-1.7451 1.4148-1.8063 0.03561-0.06119 0.54853 0.36167 1.1398 0.93968 0.92606 0.90525 0.99214 1.0828 0.47672 1.2805-0.9772 0.37496-5.3712 3.4663-5.1877 3.6498 0.09295 0.09295 1.0172-0.39416 2.0539-1.0825 1.0367-0.68832 2.6907-1.6598 3.6756-2.1589 1.5533-0.78713 1.8477-0.83877 2.2206-0.38949 0.23642 0.28487 0.80729 0.51794 1.2686 0.51794 0.94713 0 1.0244 0.25498 0.34766 1.1465-0.35681 0.47004-0.9855 0.61736-2.6346 0.61736l-2.166 2.9e-5v3.175h1.9611c1.4075 0 1.8891 0.11652 1.706 0.41273-0.16884 0.27318-0.06647 0.34035 0.30276 0.19866 0.51487-0.19758 1.1291 0.52201 0.76038 0.89076-0.08801 0.088-0.22205 2.2863-0.29786 4.8852-0.07581 2.5988-0.2485 5.6909-0.38375 6.8712-0.23856 2.0818-0.27686 2.1461-1.2792 2.1461-0.72342 0-0.89689-0.09734-0.57844-0.32459zm-0.4271-12.652c0-0.19403-0.15875-0.25467-0.35278-0.13475-0.19403 0.11991-0.35278 0.37678-0.35278 0.5708s0.15875 0.25467 0.35278 0.13475 0.35278-0.37678 0.35278-0.5708zm1.2492-1.3929c0.37968-0.61434-0.05275-0.74444-0.5366-0.16144-0.27825 0.33528-0.30502 0.53769-0.07109 0.53769 0.20633 0 0.47979-0.16931 0.60769-0.37625zm-10.421-2.446c0-0.19403-0.07001-0.35278-0.15557-0.35278s-0.25368 0.15875-0.3736 0.35278-0.04991 0.35278 0.15557 0.35278 0.3736-0.15875 0.3736-0.35278zm6.7028-0.70556c0-0.19403-0.07001-0.35278-0.15557-0.35278s-0.25368 0.15875-0.3736 0.35278-0.04991 0.35278 0.15557 0.35278 0.3736-0.15875 0.3736-0.35278zm-12.867-6.6346c-0.10862-0.10862-0.39327-2.25e-4 -0.63258 0.24087-0.34582 0.34841-0.3053 0.38893 0.19748 0.19748 0.34792-0.13248 0.54371-0.32974 0.43509-0.43836zm0.16705-1.4792c0-0.19403-0.16812-0.35278-0.3736-0.35278s-0.27548 0.15875-0.15557 0.35278c0.11992 0.19403 0.28804 0.35278 0.3736 0.35278s0.15557-0.15875 0.15557-0.35278zm-4.2333-0.70555c0-0.19403-0.16812-0.35278-0.3736-0.35278s-0.27548 0.15875-0.15557 0.35278c0.11992 0.19403 0.28804 0.35278 0.3736 0.35278 0.085561 0 0.15557-0.15875 0.15557-0.35278zm64.382-13.053c0.11991-0.19403 0.04991-0.35278-0.15557-0.35278s-0.3736 0.15875-0.3736 0.35278 0.07 0.35278 0.15557 0.35278c0.08556 0 0.25368-0.15875 0.3736-0.35278zm-54.494 36.35c-0.28542-0.18051-0.42711-0.42004-0.31485-0.53229 0.11226-0.11226 0.4049 0.03786 0.65034 0.33359 0.50892 0.61321 0.41134 0.671-0.33548 0.1987zm40.615-8.1277c0-0.48507 0.08007-0.68351 0.17794-0.44097 0.09786 0.24254 0.09786 0.63941 0 0.88195-0.09786 0.24253-0.17794 0.0441-0.17794-0.44097zm-23.428-8.6056c-0.46636-0.354-0.56221-0.74962-0.39009-1.6102 0.20574-1.0287 0.32587-1.1214 1.222-0.94214 0.54657 0.10932 1.0872 0.04764 1.2013-0.13707 0.11415-0.18471 0.55687-0.33245 0.98382-0.32833 0.42694 0.0041 2.8083-0.22842 5.292-0.51677 4.4362-0.51504 4.5284-0.51154 5.2388 0.19877 0.52584 0.52584 0.6172 0.82887 0.33498 1.1111-0.28222 0.28222-0.39025 0.24855-0.39609-0.12347-0.0044-0.28134-0.25181-0.01738-0.54976 0.58655l-0.54173 1.0981-5.0065 0.5829c-5.9251 0.68985-6.5766 0.69696-7.3886 0.08058zm-8.0909-2.2187c0.25466-0.10191 0.55893-0.08938 0.67616 0.02783 0.11722 0.11722-0.09114 0.2006-0.46302 0.18528-0.41097-0.01693-0.49456-0.10052-0.21314-0.21314zm58.13-5.8355c0.24931-0.58153 2.2613-2.1828 2.2613-1.7997-8e-6 0.16028-0.55219 0.732-1.2271 1.2705-0.67489 0.5385-1.1403 0.77662-1.0342 0.52917zm-82.758-10.857c0.20768-0.38806 0.43653-0.70556 0.50855-0.70556 0.072022 0 0.047921 0.3175-0.053557 0.70556-0.10148 0.38806-0.33033 0.70556-0.50855 0.70556-0.17902 0-0.15505-0.31576 0.053557-0.70556zm82.563-0.21159c0.19179-0.50443 0.59943-1.2585 0.90588-1.6757 0.55556-0.75636 0.55642-0.756 0.29728 0.12339-0.25688 0.87169-1.1787 2.4694-1.4248 2.4694-0.0699 0 0.02984-0.41272 0.22162-0.91715zm1.5968-6.2418c0.13248-0.34792 0.32974-0.54371 0.43835-0.43509 0.10862 0.10862 2.25e-4 0.39327-0.24087 0.63258-0.34841 0.34581-0.38893 0.3053-0.19748-0.19748zm-82.573-2.0133c0.30101-0.58208 0.62666-1.0583 0.72368-1.0583 0.097012 0-0.06989 0.47625-0.3709 1.0583-0.30101 0.58208-0.62666 1.0583-0.72367 1.0583-0.097015 0 0.06989-0.47625 0.3709-1.0583zm5.1224-8.2988c0.24544-0.29573 0.51889-0.46504 0.60769-0.37625 0.24465 0.24465-0.25243 0.91394-0.67878 0.91394-0.23393 0-0.20716-0.20242 0.07109-0.53769zm63.427-2.1942c-1.0208-1.1884-1.0803-1.6705-0.08863-0.71841 0.54959 0.5277 0.91409 1.0446 0.81001 1.1487-0.10408 0.10408-0.4287-0.08955-0.72138-0.43028zm-56.524-4.2736c-0.19702-0.31879 1.1829-1.5996 1.4431-1.3394 0.09474 0.09474-0.15269 0.49719-0.54983 0.89434s-0.79912 0.59744-0.89327 0.4451z" stroke-width=".35278"></path>
        </g>
        
    </g>
</svg>